<?xml version="1.0" standalone="no"?>
<!DOCTYPE svg PUBLIC "-//W3C//DTD SVG 20010904//EN"
 "http://www.w3.org/TR/2001/REC-SVG-20010904/DTD/svg10.dtd">
<svg version="1.0" xmlns="http://www.w3.org/2000/svg"
 width="1896.000000pt" height="337.000000pt" viewBox="0 0 1896.000000 337.000000"
 preserveAspectRatio="xMidYMid meet">

<g transform="translate(0.000000,337.000000) scale(0.100000,-0.100000)"
fill="#000000" stroke="none">
<path d="M1560 3099 c0 -82 3 -148 8 -146 180 102 351 203 362 215 8 8 11 12
5 9 -5 -3 -89 12 -185 34 -96 21 -178 38 -182 39 -5 0 -8 -68 -8 -151z"/>
<path d="M2136 3209 c-98 -21 -180 -39 -181 -41 -2 -2 81 -51 183 -110 l187
-107 3 141 c1 78 -1 144 -5 148 -4 4 -88 -10 -187 -31z"/>
<path d="M1558 1348 c20 -19 368 -281 378 -285 7 -3 89 54 181 125 93 71 179
135 191 143 12 8 22 16 22 19 0 3 -175 5 -389 5 -215 0 -387 -3 -383 -7z"/>
<path d="M1560 300 c0 -83 2 -150 4 -150 3 0 77 16 166 35 89 19 183 35 210
35 27 0 121 -16 210 -35 89 -19 163 -35 166 -35 2 0 4 66 4 146 l0 146 -52
-29 c-29 -16 -115 -64 -190 -107 l-137 -77 -190 110 -191 110 0 -149z"/>
</g>
</svg>
